<svg width="100" height="100" viewBox="0 0 100 100" xmlns="http://www.w3.org/2000/svg">
                    <defs>
                        <linearGradient id="bambooGrad" x1="0%" y1="0%" x2="0%" y2="100%">
                            <stop offset="0%" style="stop-color:#66c2a5"/>
                            <stop offset="100%" style="stop-color:#2d5016"/>
                        </linearGradient>
                    </defs>
                    <rect x="20" y="15" width="6" height="80" fill="url(#bambooGrad)" rx="3"/>
                    <rect x="32" y="20" width="5" height="75" fill="url(#bambooGrad)" rx="2.5"/>
                    <rect x="44" y="10" width="7" height="85" fill="url(#bambooGrad)" rx="3.5"/>
                    <rect x="56" y="18" width="6" height="77" fill="url(#bambooGrad)" rx="3"/>
                    <rect x="68" y="25" width="5" height="70" fill="url(#bambooGrad)" rx="2.5"/>
                    <rect x="80" y="22" width="4" height="73" fill="url(#bambooGrad)" rx="2"/>
                    <line x1="20" y1="35" x2="26" y2="35" stroke="#2d5016" stroke-width="1"/>
                    <line x1="20" y1="55" x2="26" y2="55" stroke="#2d5016" stroke-width="1"/>
                    <line x1="20" y1="75" x2="26" y2="75" stroke="#2d5016" stroke-width="1"/>
                    <line x1="44" y1="30" x2="51" y2="30" stroke="#2d5016" stroke-width="1"/>
                    <line x1="44" y1="50" x2="51" y2="50" stroke="#2d5016" stroke-width="1"/>
                    <line x1="44" y1="70" x2="51" y2="70" stroke="#2d5016" stroke-width="1"/>
                    <path d="M26 25 Q35 20 40 25" stroke="#4CAF50" stroke-width="1" fill="none"/>
                    <path d="M51 20 Q60 15 65 20" stroke="#4CAF50" stroke-width="1" fill="none"/>
                    <path d="M74 30 Q80 25 85 30" stroke="#4CAF50" stroke-width="1" fill="none"/>
                </svg>