<svg width="100" height="100" viewBox="0 0 100 100" xmlns="http://www.w3.org/2000/svg">
                    <defs>
                        <linearGradient id="dracaenaGrad" x1="0%" y1="0%" x2="0%" y2="100%">
                            <stop offset="0%" style="stop-color:#81c784"/>
                            <stop offset="100%" style="stop-color:#388e3c"/>
                        </linearGradient>
                    </defs>
                    <rect x="47" y="75" width="6" height="20" fill="#8d6e63" rx="3"/>
                    <rect x="42" y="65" width="5" height="12" fill="#8d6e63" rx="2.5" transform="rotate(-25 44.5 71)"/>
                    <rect x="53" y="65" width="5" height="12" fill="#8d6e63" rx="2.5" transform="rotate(25 55.5 71)"/>
                    <rect x="47" y="60" width="6" height="15" fill="#8d6e63" rx="3"/>
                    <rect x="35" y="58" width="4" height="10" fill="#8d6e63" rx="2" transform="rotate(-35 37 63)"/>
                    <rect x="61" y="58" width="4" height="10" fill="#8d6e63" rx="2" transform="rotate(35 63 63)"/>
                    <rect x="40" y="55" width="4" height="8" fill="#8d6e63" rx="2" transform="rotate(-15 42 59)"/>
                    <rect x="56" y="55" width="4" height="8" fill="#8d6e63" rx="2" transform="rotate(15 58 59)"/>
                    <g transform="translate(50,20)">
                        <path d="M0 0 L-15 -18 L-12 -20 L0 -2 L12 -20 L15 -18 Z" fill="url(#dracaenaGrad)"/>
                        <path d="M0 0 L-10 -15 L-8 -17 L0 -2 L8 -17 L10 -15 Z" fill="#4caf50"/>
                        <path d="M0 0 L-5 -12 L-3 -14 L0 -2 L3 -14 L5 -12 Z" fill="#66bb6a"/>
                    </g>
                    <g transform="translate(35,40)">
                        <path d="M0 0 L-12 -14 L-10 -16 L0 -2 L10 -16 L12 -14 Z" fill="url(#dracaenaGrad)"/>
                        <path d="M0 0 L-8 -11 L-6 -13 L0 -2 L6 -13 L8 -11 Z" fill="#4caf50"/>
                    </g>
                    <g transform="translate(65,40)">
                        <path d="M0 0 L-12 -14 L-10 -16 L0 -2 L10 -16 L12 -14 Z" fill="url(#dracaenaGrad)"/>
                        <path d="M0 0 L-8 -11 L-6 -13 L0 -2 L6 -13 L8 -11 Z" fill="#4caf50"/>
                    </g>
                    <g transform="translate(25,50)">
                        <path d="M0 0 L-10 -12 L-8 -14 L0 -2 L8 -14 L10 -12 Z" fill="url(#dracaenaGrad)"/>
                        <path d="M0 0 L-6 -9 L-4 -11 L0 -2 L4 -11 L6 -9 Z" fill="#66bb6a"/>
                    </g>
                    <g transform="translate(75,50)">
                        <path d="M0 0 L-10 -12 L-8 -14 L0 -2 L8 -14 L10 -12 Z" fill="url(#dracaenaGrad)"/>
                        <path d="M0 0 L-6 -9 L-4 -11 L0 -2 L4 -11 L6 -9 Z" fill="#66bb6a"/>
                    </g>
                    <g transform="translate(42,48)">
                        <path d="M0 0 L-8 -10 L-6 -12 L0 -2 L6 -12 L8 -10 Z" fill="#4caf50"/>
                    </g>
                    <g transform="translate(58,48)">
                        <path d="M0 0 L-8 -10 L-6 -12 L0 -2 L6 -12 L8 -10 Z" fill="#4caf50"/>
                    </g>
                </svg>