<svg width="100" height="100" viewBox="0 0 100 100" xmlns="http://www.w3.org/2000/svg">
                    <defs>
                        <linearGradient id="latanierGrad" x1="0%" y1="0%" x2="0%" y2="100%">
                            <stop offset="0%" style="stop-color:#81c784"/>
                            <stop offset="100%" style="stop-color:#2e7d32"/>
                        </linearGradient>
                    </defs>
                    <rect x="47" y="45" width="6" height="50" fill="#8d6e63" rx="3"/>
                    <path d="M50 35 Q20 15 10 20 Q15 25 25 30 Q35 35 50 35" fill="url(#latanierGrad)"/>
                    <path d="M50 35 Q80 15 90 20 Q85 25 75 30 Q65 35 50 35" fill="url(#latanierGrad)"/>
                    <path d="M50 35 Q35 10 25 5 Q30 15 40 25 Q45 30 50 35" fill="url(#latanierGrad)"/>
                    <path d="M50 35 Q65 10 75 5 Q70 15 60 25 Q55 30 50 35" fill="url(#latanierGrad)"/>
                    <path d="M50 35 Q50 5 45 0 Q50 10 55 0 Q50 5 50 35" fill="url(#latanierGrad)"/>
                    <line x1="35" y1="25" x2="20" y2="15" stroke="#2e7d32" stroke-width="1"/>
                    <line x1="65" y1="25" x2="80" y2="15" stroke="#2e7d32" stroke-width="1"/>
                    <line x1="50" y1="20" x2="50" y2="5" stroke="#2e7d32" stroke-width="1"/>
                </svg>