<svg width="100" height="100" viewBox="0 0 100 100" xmlns="http://www.w3.org/2000/svg">
                    <defs>
                        <linearGradient id="nolinaGrad" x1="0%" y1="0%" x2="0%" y2="100%">
                            <stop offset="0%" style="stop-color:#81c784"/>
                            <stop offset="100%" style="stop-color:#388e3c"/>
                        </linearGradient>
                        <radialGradient id="trunkGrad" cx="50%" cy="50%">
                            <stop offset="0%" style="stop-color:#8d6e63"/>
                            <stop offset="100%" style="stop-color:#5d4037"/>
                        </radialGradient>
                    </defs>
                    <ellipse cx="50" cy="85" rx="18" ry="12" fill="url(#trunkGrad)"/>
                    <path d="M50 85 Q48 70 47 50 Q46 30 48 15" stroke="url(#trunkGrad)" stroke-width="8" fill="none" stroke-linecap="round"/>
                    <path d="M48 15 Q25 8 15 5" stroke="url(#nolinaGrad)" stroke-width="2" fill="none"/>
                    <path d="M48 15 Q30 10 20 8" stroke="url(#nolinaGrad)" stroke-width="2" fill="none"/>
                    <path d="M48 15 Q35 12 25 12" stroke="url(#nolinaGrad)" stroke-width="2" fill="none"/>
                    <path d="M48 15 Q40 8 30 5" stroke="url(#nolinaGrad)" stroke-width="2" fill="none"/>
                    <path d="M48 15 Q48 5 48 2" stroke="url(#nolinaGrad)" stroke-width="3" fill="none"/>
                    <path d="M48 15 Q56 8 66 5" stroke="url(#nolinaGrad)" stroke-width="2" fill="none"/>
                    <path d="M48 15 Q60 10 70 8" stroke="url(#nolinaGrad)" stroke-width="2" fill="none"/>
                    <path d="M48 15 Q65 12 75 12" stroke="url(#nolinaGrad)" stroke-width="2" fill="none"/>
                    <path d="M48 15 Q75 8 85 5" stroke="url(#nolinaGrad)" stroke-width="2" fill="none"/>
                    <path d="M48 15 Q35 18 28 25" stroke="url(#nolinaGrad)" stroke-width="1.5" fill="none"/>
                    <path d="M48 15 Q40 20 35 28" stroke="url(#nolinaGrad)" stroke-width="1.5" fill="none"/>
                    <path d="M48 15 Q60 20 65 28" stroke="url(#nolinaGrad)" stroke-width="1.5" fill="none"/>
                    <path d="M48 15 Q65 18 72 25" stroke="url(#nolinaGrad)" stroke-width="1.5" fill="none"/>
                    <path d="M48 15 Q20 15 12 20" stroke="url(#nolinaGrad)" stroke-width="1.5" fill="none"/>
                    <path d="M48 15 Q80 15 88 20" stroke="url(#nolinaGrad)" stroke-width="1.5" fill="none"/>
                </svg>