<svg width="100" height="100" viewBox="0 0 100 100" xmlns="http://www.w3.org/2000/svg">
                    <defs>
                        <linearGradient id="plataneGrad" x1="0%" y1="0%" x2="0%" y2="100%">
                            <stop offset="0%" style="stop-color:#81c784"/>
                            <stop offset="100%" style="stop-color:#2e7d32"/>
                        </linearGradient>
                        <pattern id="barkPattern" patternUnits="userSpaceOnUse" width="4" height="4">
                            <rect width="4" height="4" fill="#8d6e63"/>
                            <rect width="2" height="2" fill="#bcaaa4"/>
                            <rect x="2" y="2" width="2" height="2" fill="#bcaaa4"/>
                        </pattern>
                    </defs>
                    <rect x="45" y="55" width="10" height="40" fill="url(#barkPattern)" rx="5"/>
                    <circle cx="50" cy="40" r="32" fill="url(#plataneGrad)"/>
                    <path d="M25 30 Q20 25 25 20 Q30 25 35 30 Q30 35 25 30" fill="#4caf50" opacity="0.8"/>
                    <path d="M75 35 Q80 30 75 25 Q70 30 65 35 Q70 40 75 35" fill="#4caf50" opacity="0.8"/>
                    <path d="M50 18 Q45 13 50 8 Q55 13 60 18 Q55 23 50 18" fill="#66bb6a" opacity="0.9"/>
                    <circle cx="35" cy="45" r="2" fill="#8d6e63"/>
                    <circle cx="65" cy="50" r="2" fill="#8d6e63"/>
                </svg>