<svg width="100" height="100" viewBox="0 0 100 100" xmlns="http://www.w3.org/2000/svg">
                    <defs>
                        <linearGradient id="washingtoniaGrad" x1="0%" y1="0%" x2="0%" y2="100%">
                            <stop offset="0%" style="stop-color:#81c784"/>
                            <stop offset="100%" style="stop-color:#388e3c"/>
                        </linearGradient>
                    </defs>
                    <rect x="47" y="40" width="6" height="55" fill="#8d6e63" rx="3"/>
                    <path d="M45 50 Q35 55 30 60 Q35 65 45 60" fill="#d7ccc8" opacity="0.7"/>
                    <path d="M55 50 Q65 55 70 60 Q65 65 55 60" fill="#d7ccc8" opacity="0.7"/>
                    <path d="M47 55 Q40 62 35 68 Q42 70 47 65" fill="#d7ccc8" opacity="0.6"/>
                    <path d="M53 55 Q60 62 65 68 Q58 70 53 65" fill="#d7ccc8" opacity="0.6"/>
                    <circle cx="50" cy="35" r="3" fill="#ff9800"/>
                    <path d="M50 35 Q25 15 15 10 Q20 20 30 25 Q40 30 50 35" fill="url(#washingtoniaGrad)"/>
                    <path d="M50 35 Q75 15 85 10 Q80 20 70 25 Q60 30 50 35" fill="url(#washingtoniaGrad)"/>
                    <path d="M50 35 Q40 10 35 5 Q40 15 45 25 Q47 30 50 35" fill="url(#washingtoniaGrad)"/>
                    <path d="M50 35 Q60 10 65 5 Q60 15 55 25 Q53 30 50 35" fill="url(#washingtoniaGrad)"/>
                    <path d="M30 20 Q25 15 20 18" stroke="#8bc34a" stroke-width="1" fill="none"/>
                    <path d="M70 20 Q75 15 80 18" stroke="#8bc34a" stroke-width="1" fill="none"/>
                </svg>